HIERARCHY
ROOT root
{
  OFFSET 0 82.5076 0
  CHANNELS 6 Xposition Yposition Zposition Zrotation Xrotation Yrotation
  JOINT torso_1
  {
    OFFSET 0 4.49154 -1.01827
    CHANNELS 6 Xposition Yposition Zposition Zrotation Xrotation Yrotation
    JOINT torso_2
    {
      OFFSET 0 4.9673 0.947562
      CHANNELS 6 Xposition Yposition Zposition Zrotation Xrotation Yrotation
      JOINT torso_3
      {
        OFFSET -9.07426e-18 5.29732 0.101714
        CHANNELS 6 Xposition Yposition Zposition Zrotation Xrotation Yrotation
        JOINT torso_4
        {
          OFFSET -9.7687e-18 5.75371 -0.392248
          CHANNELS 6 Xposition Yposition Zposition Zrotation Xrotation Yrotation
          JOINT torso_5
          {
            OFFSET -1.74486e-17 6.72623 -1.33183
            CHANNELS 6 Xposition Yposition Zposition Zrotation Xrotation Yrotation
            JOINT torso_6
            {
              OFFSET -2.24023e-17 8.3994 -0.808771
              CHANNELS 6 Xposition Yposition Zposition Zrotation Xrotation Yrotation
              JOINT torso_7
              {
                OFFSET -2.56828e-17 9.33154 1.39461
                CHANNELS 6 Xposition Yposition Zposition Zrotation Xrotation Yrotation
                JOINT neck_1
                {
                  OFFSET -1.14257e-17 4.2331 0.632641
                  CHANNELS 6 Xposition Yposition Zposition Zrotation Xrotation Yrotation
                  JOINT neck_2
                  {
                    OFFSET -1.60217e-17 4.26374 0.373029
                    CHANNELS 6 Xposition Yposition Zposition Zrotation Xrotation Yrotation
                    JOINT head
                    {
                      OFFSET -1.77726e-17 4.27198 0.676615
                      CHANNELS 6 Xposition Yposition Zposition Zrotation Xrotation Yrotation
                      End Site
                      {
                        OFFSET 0 0.1 0
                      }
                    }
                  }
                }
                JOINT l_shoulder
                {
                  OFFSET 1.09045 -6.72785 6.66279
                  CHANNELS 6 Xposition Yposition Zposition Zrotation Xrotation Yrotation
                  JOINT l_up_arm
                  {
                    OFFSET 11.4571 2.87384 -2.89083
                    CHANNELS 6 Xposition Yposition Zposition Zrotation Xrotation Yrotation
                    JOINT l_low_arm
                    {
                      OFFSET 25.8314 0.0528939 0.121196
                      CHANNELS 6 Xposition Yposition Zposition Zrotation Xrotation Yrotation
                      JOINT l_hand
                      {
                        OFFSET 21.4323 0.0438853 0.100557
                        CHANNELS 6 Xposition Yposition Zposition Zrotation Xrotation Yrotation
                        End Site
                        {
                          OFFSET 0.1 0 0
                        }
                      }
                    }
                  }
                }
                JOINT r_shoulder
                {
                  OFFSET -1.09045 -6.72784 6.66271
                  CHANNELS 6 Xposition Yposition Zposition Zrotation Xrotation Yrotation
                  JOINT r_up_arm
                  {
                    OFFSET -11.4571 2.87384 -2.89083
                    CHANNELS 6 Xposition Yposition Zposition Zrotation Xrotation Yrotation
                    JOINT r_low_arm
                    {
                      OFFSET -25.8314 0.0528939 0.121196
                      CHANNELS 6 Xposition Yposition Zposition Zrotation Xrotation Yrotation
                      JOINT r_hand
                      {
                        OFFSET -21.4323 0.0438851 0.100557
                        CHANNELS 6 Xposition Yposition Zposition Zrotation Xrotation Yrotation
                        End Site
                        {
                          OFFSET -0.1 0 0
                        }
                      }
                    }
                  }
                }
              }
            }
          }
        }
      }
    }
  }
  JOINT l_up_leg
  {
    OFFSET 8.1689 -3.71937 1.79771
    CHANNELS 6 Xposition Yposition Zposition Zrotation Xrotation Yrotation
    JOINT l_low_leg
    {
      OFFSET -0.753815 -34.2897 -0.579442
      CHANNELS 6 Xposition Yposition Zposition Zrotation Xrotation Yrotation
      JOINT l_foot
      {
        OFFSET -2.05729 -35.731 -5.34947
        CHANNELS 6 Xposition Yposition Zposition Zrotation Xrotation Yrotation
        JOINT l_toes
        {
          OFFSET 0.689027 -8.74169 11.0513
          CHANNELS 6 Xposition Yposition Zposition Zrotation Xrotation Yrotation
          End Site
          {
            OFFSET 0 0 0.1
          }
        }
      }
    }
  }
  JOINT r_up_leg
  {
    OFFSET -8.1689 -3.71937 1.79771
    CHANNELS 6 Xposition Yposition Zposition Zrotation Xrotation Yrotation
    JOINT r_low_leg
    {
      OFFSET 0.753815 -34.2897 -0.579442
      CHANNELS 6 Xposition Yposition Zposition Zrotation Xrotation Yrotation
      JOINT r_foot
      {
        OFFSET 2.05729 -35.731 -5.34947
        CHANNELS 6 Xposition Yposition Zposition Zrotation Xrotation Yrotation
        JOINT r_toes
        {
          OFFSET -0.689027 -8.74169 11.0513
          CHANNELS 6 Xposition Yposition Zposition Zrotation Xrotation Yrotation
          End Site
          {
            OFFSET 0 0 0.1
          }
        }
      }
    }
  }
}
MOTION
Frames: 6
Frame Time: 0.020000
739.809 78.6705 -585.903 6.22913 4.4829 -82.3091 0 4.49154 -1.01827 -1.45424 2.23802 1.47311 0 4.9673 0.947562 -1.60306 2.45463 1.25253 -9.07426e-18 5.29732 0.101714 -1.69485 2.88182 1.21925 -9.7687e-18 5.75371 -0.392248 -1.83077 3.16684 1.15038 -1.74486e-17 6.72623 -1.33183 -1.685 2.94273 1.36569 -2.24023e-17 8.3994 -0.808771 -1.32826 2.3764 1.62987 -2.56828e-17 9.33154 1.39461 -0.323949 0.435058 -0.327911 -1.14257e-17 4.2331 0.632641 1.88583 -9.01686 15.3222 -1.60217e-17 4.26374 0.373029 -3.95362 -15.6802 7.01326 -1.77726e-17 4.27198 0.676615 -6.7804 -16.9568 3.58393 1.09045 -6.72785 6.66279 7.40211 0.204927 -8.00305 11.4571 2.87384 -2.89083 -67.0283 -7.8027 -43.7384 25.8314 0.0528939 0.121196 6.7961 -2.08833 -34.7218 21.4323 0.0438853 0.100557 -178.58 -75.8637 -177.637 -1.09045 -6.72784 6.66271 -11.3331 0.377265 -0.439253 -11.4571 2.87384 -2.89083 21.5449 52.3007 90.8817 -25.8314 0.0528939 0.121196 -9.04091 -4.0796 49.096 -21.4323 0.0438851 0.100557 6.11693 -56.5815 9.57166 8.1689 -3.71937 1.79771 22.6229 -19.1831 0.471893 -0.753815 -34.2897 -0.579442 -5.3272 19.3213 0.566532 -2.05729 -35.731 -5.34947 -13.1184 -11.1752 15.2845 0.689027 -8.74169 11.0513 -7.63068e-16 -8.32072e-16 4.93576e-17 -8.1689 -3.71937 1.79771 14.296 -19.6742 41.5779 0.753815 -34.2897 -0.579442 8.39996 29.0376 -1.65899 2.05729 -35.731 -5.34947 -6.40481 -11.4841 -15.6445 -0.689027 -8.74169 11.0513 5.90937e-16 -6.2092e-16 -1.27965e-14 
739.692 78.6342 -586.193 6.07057 4.40668 -82.9013 0 4.49154 -1.01827 -1.4615 2.25793 1.37636 0 4.9673 0.947562 -1.5937 2.45972 1.13887 -9.07426e-18 5.29732 0.101714 -1.67839 2.85437 1.10117 -9.7687e-18 5.75371 -0.392248 -1.80381 3.08551 1.02557 -1.74486e-17 6.72623 -1.33183 -1.67376 2.83201 1.24233 -2.24023e-17 8.3994 -0.808771 -1.34783 2.24905 1.50796 -2.56828e-17 9.33154 1.39461 -0.323181 0.459007 -0.347453 -1.14257e-17 4.2331 0.632641 1.84746 -8.56217 15.5824 -1.60217e-17 4.26374 0.373029 -3.93318 -15.725 7.14861 -1.77726e-17 4.27198 0.676615 -6.65939 -17.3283 3.69228 1.09045 -6.72785 6.66279 7.51386 0.262668 -7.76157 11.4571 2.87384 -2.89083 -67.3982 -8.09597 -43.2568 25.8314 0.0528939 0.121196 6.48864 -1.88462 -32.9552 21.4323 0.0438853 0.100557 -177.816 -75.4239 -177.02 -1.09045 -6.72784 6.66271 -11.8127 0.234794 -0.807966 -11.4571 2.87384 -2.89083 22.5686 52.194 89.5361 -25.8314 0.0528939 0.121196 -9.19738 -4.2615 50.24 -21.4323 0.0438851 0.100557 6.44484 -57.0368 9.8813 8.1689 -3.71937 1.79771 23.0236 -18.6902 1.27866 -0.753815 -34.2897 -0.579442 -5.33934 19.3624 0.569831 -2.05729 -35.731 -5.34947 -13.279 -11.0252 15.3298 0.689027 -8.74169 11.0513 -2.74909e-15 -9.18983e-16 1.36268e-16 -8.1689 -3.71937 1.79771 14.6763 -19.3762 42.0553 0.753815 -34.2897 -0.579442 8.41993 29.0959 -1.66767 2.05729 -35.731 -5.34947 -6.58698 -11.3958 -15.603 -0.689027 -8.74169 11.0513 -5.90923e-16 -5.59365e-16 -1.27473e-14 
739.58 78.5992 -586.484 5.91723 4.36248 -83.5132 0 4.49154 -1.01827 -1.4572 2.29168 1.28496 0 4.9673 0.947562 -1.57614 2.47498 1.03032 -9.07426e-18 5.29732 0.101714 -1.65724 2.83207 0.987732 -9.7687e-18 5.75371 -0.392248 -1.77529 3.00387 0.904598 -1.74486e-17 6.72623 -1.33183 -1.66286 2.71655 1.12276 -2.24023e-17 8.3994 -0.808771 -1.36741 2.11403 1.39012 -2.56828e-17 9.33154 1.39461 -0.320208 0.483718 -0.368173 -1.14257e-17 4.2331 0.632641 1.82781 -8.17505 15.8443 -1.60217e-17 4.26374 0.373029 -3.92318 -15.7868 7.28477 -1.77726e-17 4.27198 0.676615 -6.53733 -17.6678 3.82958 1.09045 -6.72785 6.66279 7.55882 0.36193 -7.58263 11.4571 2.87384 -2.89083 -67.6699 -8.40883 -42.7775 25.8314 0.0528939 0.121196 6.17864 -1.69262 -31.2075 21.4323 0.0438853 0.100557 -177 -74.8356 -176.323 -1.09045 -6.72784 6.66271 -12.3353 0.0885729 -1.17384 -11.4571 2.87384 -2.89083 23.5178 51.8705 88.117 -25.8314 0.0528939 0.121196 -9.37919 -4.48239 51.6037 -21.4323 0.0438851 0.100557 6.99231 -57.9481 10.3619 8.1689 -3.71937 1.79771 23.4554 -18.1973 2.08372 -0.753815 -34.2897 -0.579442 -5.35242 19.4066 0.573397 -2.05729 -35.731 -5.34947 -13.4385 -10.8757 15.3803 0.689027 -8.74169 11.0513 4.07934e-16 -7.83337e-16 6.22343e-19 -8.1689 -3.71937 1.79771 15.09 -19.0901 42.4894 0.753815 -34.2897 -0.579442 8.43977 29.1538 -1.67631 2.05729 -35.731 -5.34947 -6.81213 -11.2515 -15.5508 -0.689027 -8.74169 11.0513 -5.96354e-16 -5.59082e-16 -1.27471e-14 
739.47 78.5602 -586.777 5.75144 4.34574 -84.1398 0 4.49154 -1.01827 -1.45868 2.32622 1.18759 0 4.9673 0.947562 -1.56221 2.49209 0.912549 -9.07426e-18 5.29732 0.101714 -1.63851 2.81278 0.864574 -9.7687e-18 5.75371 -0.392248 -1.74761 2.92505 0.77238 -1.74486e-17 6.72623 -1.33183 -1.65309 2.60398 0.992959 -2.24023e-17 8.3994 -0.808771 -1.38841 1.98396 1.262 -2.56828e-17 9.33154 1.39461 -0.3147 0.510431 -0.392342 -1.14257e-17 4.2331 0.632641 1.83819 -7.80143 16.1552 -1.60217e-17 4.26374 0.373029 -3.92273 -15.8609 7.44489 -1.77726e-17 4.27198 0.676615 -6.43487 -18.0138 3.96574 1.09045 -6.72785 6.66279 7.51666 0.51224 -7.45958 11.4571 2.87384 -2.89083 -67.6761 -8.6877 -42.1569 25.8314 0.0528939 0.121196 5.90566 -1.5341 -29.6939 21.4323 0.0438853 0.100557 -176.312 -73.7673 -175.665 -1.09045 -6.72784 6.66271 -12.9567 -0.0796078 -1.56401 -11.4571 2.87384 -2.89083 24.182 51.2803 86.92 -25.8314 0.0528939 0.121196 -9.57939 -4.73856 53.1531 -21.4323 0.0438851 0.100557 7.58151 -59.0118 10.7943 8.1689 -3.71937 1.79771 23.939 -17.6992 2.97168 -0.753815 -34.2897 -0.579442 -5.37797 19.4931 0.580393 -2.05729 -35.731 -5.34947 -13.6383 -10.7357 15.4185 0.689027 -8.74169 11.0513 -1.16062e-15 -8.44552e-16 6.18373e-17 -8.1689 -3.71937 1.79771 15.5219 -18.7824 42.9022 0.753815 -34.2897 -0.579442 8.45349 29.1937 -1.68229 2.05729 -35.731 -5.34947 -7.03916 -11.0975 -15.4973 -0.689027 -8.74169 11.0513 -9.92113e-16 -5.46714e-16 -1.27223e-14 
739.36 78.5096 -587.065 5.60066 4.36888 -84.8007 0 4.49154 -1.01827 -1.47897 2.33852 1.07468 0 4.9673 0.947562 -1.56046 2.49458 0.773671 -9.07426e-18 5.29732 0.101714 -1.62657 2.78717 0.719903 -9.7687e-18 5.75371 -0.392248 -1.72127 2.84977 0.617596 -1.74486e-17 6.72623 -1.33183 -1.64344 2.50276 0.841948 -2.24023e-17 8.3994 -0.808771 -1.41062 1.87227 1.11276 -2.56828e-17 9.33154 1.39461 -0.307005 0.536892 -0.419199 -1.14257e-17 4.2331 0.632641 1.90425 -7.50608 16.5445 -1.60217e-17 4.26374 0.373029 -3.9173 -15.9725 7.64476 -1.77726e-17 4.27198 0.676615 -6.29362 -18.346 4.15431 1.09045 -6.72785 6.66279 7.39937 0.69662 -7.33352 11.4571 2.87384 -2.89083 -67.3943 -8.87996 -41.2865 25.8314 0.0528939 0.121196 5.69662 -1.4191 -28.5494 21.4323 0.0438853 0.100557 -175.804 -72.2152 -175.104 -1.09045 -6.72784 6.66271 -13.6118 -0.270262 -1.98139 -11.4571 2.87384 -2.89083 24.6579 50.5042 85.8588 -25.8314 0.0528939 0.121196 -9.82216 -5.06947 55.1085 -21.4323 0.0438851 0.100557 7.71832 -59.971 10.7489 8.1689 -3.71937 1.79771 24.5054 -17.2091 4.06771 -0.753815 -34.2897 -0.579442 -5.42246 19.6433 0.592666 -2.05729 -35.731 -5.34947 -13.8677 -10.6498 15.4387 0.689027 -8.74169 11.0513 1.20669e-15 -7.45895e-16 -3.68195e-17 -8.1689 -3.71937 1.79771 16.0075 -18.5017 43.3161 0.753815 -34.2897 -0.579442 8.48104 29.2739 -1.69433 2.05729 -35.731 -5.34947 -7.32919 -10.9173 -15.4329 -0.689027 -8.74169 11.0513 -9.93923e-16 -5.46658e-16 -1.27222e-14 
739.253 78.4452 -587.355 5.43722 4.39605 -85.5112 0 4.49154 -1.01827 -1.52529 2.34994 0.951657 0 4.9673 0.947562 -1.57748 2.49934 0.620196 -9.07426e-18 5.29732 0.101714 -1.62627 2.76688 0.561241 -9.7687e-18 5.75371 -0.392248 -1.69992 2.78161 0.448947 -1.74486e-17 6.72623 -1.33183 -1.63399 2.40941 0.67895 -2.24023e-17 8.3994 -0.808771 -1.4291 1.77047 0.951126 -2.56828e-17 9.33154 1.39461 -0.296716 0.562138 -0.44618 -1.14257e-17 4.2331 0.632641 2.03052 -7.31551 17.0006 -1.60217e-17 4.26374 0.373029 -3.87525 -16.1271 7.88042 -1.77726e-17 4.27198 0.676615 -6.1522 -18.6661 4.38923 1.09045 -6.72785 6.66279 7.24474 0.903875 -7.17462 11.4571 2.87384 -2.89083 -66.8439 -8.89028 -40.1707 25.8314 0.0528939 0.121196 5.56107 -1.3474 -27.8136 21.4323 0.0438853 0.100557 -175.536 -70.2878 -174.711 -1.09045 -6.72784 6.66271 -14.2168 -0.460137 -2.39157 -11.4571 2.87384 -2.89083 25.1543 49.5843 84.7199 -25.8314 0.0528939 0.121196 -10.0985 -5.47722 57.4547 -21.4323 0.0438851 0.100557 7.52528 -61.0858 10.3537 8.1689 -3.71937 1.79771 25.1311 -16.6815 5.34768 -0.753815 -34.2897 -0.579442 -5.48154 19.8424 0.609136 -2.05729 -35.731 -5.34947 -14.1928 -10.6056 15.4285 0.689027 -8.74169 11.0513 1.21756e-15 -7.45443e-16 -3.72721e-17 -8.1689 -3.71937 1.79771 16.5403 -18.2517 43.7601 0.753815 -34.2897 -0.579442 8.5456 29.4613 -1.72269 2.05729 -35.731 -5.34947 -7.62953 -10.7193 -15.3659 -0.689027 -8.74169 11.0513 -1.38968e-15 -5.3429e-16 -1.27099e-14 
